<svg xmlns="http://www.w3.org/2000/svg" width="23" height="44" viewBox="0 0 23 44"><path fill="#6e6d6b" d="M9.1 18.62c.46-1.2-.14-1.81-.68-1.81-2.48 0-5.7 5.83-6.9 5.83-.47 0-.87-.47-.87-.88 0-1.2 2.95-4.01 3.82-4.89 2.68-2.54 6.16-4.48 10.05-4.48 2.88 0 5.96 1.74 3.55 8.24l-4.82 13.06c-.4 1-1.14 2.68-1.14 3.75 0 .47.26.94.8.94 2 0 5.7-5.7 6.63-5.7.34 0 .8.4.8 1.01 0 1.94-7.83 10.25-14.6 10.25-2.41 0-4.08-1.14-4.08-3.68 0-3.22 2.27-8.71 2.74-9.85zm8.16-8.64a5.42 5.42 0 0 0 5.56-5.37c0-2.74-1.94-4.55-4.62-4.55a5.5 5.5 0 0 0-5.5 5.36c0 2.75 1.82 4.56 4.56 4.56z"/></svg>